<?xml version="1.0" encoding="utf-8"?>
<!-- Generator: Adobe Illustrator 24.0.1, SVG Export Plug-In . SVG Version: 6.00 Build 0)  -->
<svg version="1.1" id="Camada_1" xmlns="http://www.w3.org/2000/svg" xmlns:xlink="http://www.w3.org/1999/xlink" x="0px" y="0px"
	 viewBox="0 0 465.1 783.1" style="enable-background:new 0 0 465.1 783.1;" xml:space="preserve">
<style type="text/css">
	.st0{fill:#FFFFFF;stroke:#000000;stroke-miterlimit:10;}
	.st1{font-family:'MyriadPro-Regular';}
	.st2{font-size:6.9867px;}
</style>
<rect x="245.5" y="34" class="st0" width="177.9" height="153.3"/>
<rect x="248.5" y="110.7" class="st0" width="17.2" height="73.7"/>
<rect x="265.7" y="110.7" class="st0" width="17.2" height="73.7"/>
<rect x="282.9" y="110.7" class="st0" width="17.2" height="73.7"/>
<rect x="300.1" y="110.7" class="st0" width="17.2" height="73.7"/>
<rect x="317.3" y="110.7" class="st0" width="17.2" height="73.7"/>
<rect x="334.5" y="110.7" class="st0" width="17.2" height="73.7"/>
<rect x="351.7" y="110.7" class="st0" width="17.2" height="73.7"/>
<rect x="368.9" y="110.7" class="st0" width="17.2" height="73.7"/>
<rect x="386.1" y="110.7" class="st0" width="17.2" height="73.7"/>
<rect x="403.4" y="110.7" class="st0" width="17.2" height="73.7"/>
<rect x="403.4" y="37" class="st0" width="17.2" height="73.7"/>
<rect x="386.1" y="37" class="st0" width="17.2" height="73.7"/>
<rect x="368.8" y="37" class="st0" width="17.2" height="73.7"/>
<rect x="351.6" y="37" class="st0" width="17.2" height="73.7"/>
<rect x="334.3" y="37" class="st0" width="17.2" height="73.7"/>
<rect x="317" y="37" class="st0" width="17.2" height="73.7"/>
<rect x="299.8" y="37" class="st0" width="17.2" height="73.7"/>
<rect x="282.5" y="37" class="st0" width="17.2" height="73.7"/>
<rect x="265.3" y="37" class="st0" width="17.2" height="73.7"/>
<rect x="248" y="37" class="st0" width="17.2" height="73.7"/>
<desc>Produce by Acme CAD Converter</desc>
<rect x="35.5" y="34" class="st0" width="177.9" height="153.3"/>
<rect x="38.4" y="110.7" class="st0" width="17.2" height="73.7"/>
<rect x="55.7" y="110.7" class="st0" width="17.2" height="73.7"/>
<rect x="72.9" y="110.7" class="st0" width="17.2" height="73.7"/>
<rect x="90.1" y="110.7" class="st0" width="17.2" height="73.7"/>
<rect x="107.3" y="110.7" class="st0" width="17.2" height="73.7"/>
<rect x="124.5" y="110.7" class="st0" width="17.2" height="73.7"/>
<rect x="141.7" y="110.7" class="st0" width="17.2" height="73.7"/>
<rect x="158.9" y="110.7" class="st0" width="17.2" height="73.7"/>
<rect x="176.1" y="110.7" class="st0" width="17.2" height="73.7"/>
<rect x="193.3" y="110.7" class="st0" width="17.2" height="73.7"/>
<rect x="193.3" y="37" class="st0" width="17.2" height="73.7"/>
<rect x="176.1" y="37" class="st0" width="17.2" height="73.7"/>
<rect x="158.8" y="37" class="st0" width="17.2" height="73.7"/>
<rect x="141.5" y="37" class="st0" width="17.2" height="73.7"/>
<rect x="124.3" y="37" class="st0" width="17.2" height="73.7"/>
<rect x="107" y="37" class="st0" width="17.2" height="73.7"/>
<rect x="89.8" y="37" class="st0" width="17.2" height="73.7"/>
<rect x="72.5" y="37" class="st0" width="17.2" height="73.7"/>
<rect x="55.2" y="37" class="st0" width="17.2" height="73.7"/>
<rect x="38" y="37" class="st0" width="17.2" height="73.7"/>
<desc>Produce by Acme CAD Converter</desc>
<rect x="35.5" y="223.6" class="st0" width="177.9" height="153.3"/>
<rect x="38.4" y="300.3" class="st0" width="17.2" height="73.7"/>
<rect x="55.7" y="300.3" class="st0" width="17.2" height="73.7"/>
<rect x="72.9" y="300.3" class="st0" width="17.2" height="73.7"/>
<rect x="90.1" y="300.3" class="st0" width="17.2" height="73.7"/>
<rect x="107.3" y="300.3" class="st0" width="17.2" height="73.7"/>
<rect x="124.5" y="300.3" class="st0" width="17.2" height="73.7"/>
<rect x="141.7" y="300.3" class="st0" width="17.2" height="73.7"/>
<rect x="158.9" y="300.3" class="st0" width="17.2" height="73.7"/>
<rect x="176.1" y="300.3" class="st0" width="17.2" height="73.7"/>
<rect x="193.3" y="300.3" class="st0" width="17.2" height="73.7"/>
<rect x="193.3" y="226.5" class="st0" width="17.2" height="73.7"/>
<rect x="176.1" y="226.5" class="st0" width="17.2" height="73.7"/>
<rect x="158.8" y="226.5" class="st0" width="17.2" height="73.7"/>
<rect x="141.5" y="226.5" class="st0" width="17.2" height="73.7"/>
<rect x="124.3" y="226.5" class="st0" width="17.2" height="73.7"/>
<rect x="107" y="226.5" class="st0" width="17.2" height="73.7"/>
<rect x="89.8" y="226.5" class="st0" width="17.2" height="73.7"/>
<rect x="72.5" y="226.5" class="st0" width="17.2" height="73.7"/>
<rect x="55.2" y="226.5" class="st0" width="17.2" height="73.7"/>
<rect x="38" y="226.5" class="st0" width="17.2" height="73.7"/>
<desc>Produce by Acme CAD Converter</desc>
<rect x="35.5" y="413.2" class="st0" width="177.9" height="153.3"/>
<rect x="38.4" y="489.8" class="st0" width="17.2" height="73.7"/>
<rect x="55.7" y="489.8" class="st0" width="17.2" height="73.7"/>
<rect x="72.9" y="489.8" class="st0" width="17.2" height="73.7"/>
<rect x="90.1" y="489.8" class="st0" width="17.2" height="73.7"/>
<rect x="107.3" y="489.8" class="st0" width="17.2" height="73.7"/>
<rect x="124.5" y="489.8" class="st0" width="17.2" height="73.7"/>
<rect x="141.7" y="489.8" class="st0" width="17.2" height="73.7"/>
<rect x="158.9" y="489.8" class="st0" width="17.2" height="73.7"/>
<rect x="176.1" y="489.8" class="st0" width="17.2" height="73.7"/>
<rect x="193.3" y="489.8" class="st0" width="17.2" height="73.7"/>
<rect x="193.3" y="416.1" class="st0" width="17.2" height="73.7"/>
<rect x="176.1" y="416.1" class="st0" width="17.2" height="73.7"/>
<rect x="158.8" y="416.1" class="st0" width="17.2" height="73.7"/>
<rect x="141.5" y="416.1" class="st0" width="17.2" height="73.7"/>
<rect x="124.3" y="416.1" class="st0" width="17.2" height="73.7"/>
<rect x="107" y="416.1" class="st0" width="17.2" height="73.7"/>
<rect x="89.8" y="416.1" class="st0" width="17.2" height="73.7"/>
<rect x="72.5" y="416.1" class="st0" width="17.2" height="73.7"/>
<rect x="55.2" y="416.1" class="st0" width="17.2" height="73.7"/>
<rect x="38" y="416.1" class="st0" width="17.2" height="73.7"/>
<desc>Produce by Acme CAD Converter</desc>
<rect x="35.5" y="602.7" class="st0" width="177.9" height="153.3"/>
<rect x="38.4" y="679.4" class="st0" width="17.2" height="73.7"/>
<rect x="55.7" y="679.4" class="st0" width="17.2" height="73.7"/>
<rect x="72.9" y="679.4" class="st0" width="17.2" height="73.7"/>
<rect x="90.1" y="679.4" class="st0" width="17.2" height="73.7"/>
<rect x="107.3" y="679.4" class="st0" width="17.2" height="73.7"/>
<rect x="124.5" y="679.4" class="st0" width="17.2" height="73.7"/>
<rect x="141.7" y="679.4" class="st0" width="17.2" height="73.7"/>
<rect x="158.9" y="679.4" class="st0" width="17.2" height="73.7"/>
<rect x="176.1" y="679.4" class="st0" width="17.2" height="73.7"/>
<rect x="193.3" y="679.4" class="st0" width="17.2" height="73.7"/>
<rect x="193.3" y="605.7" class="st0" width="17.2" height="73.7"/>
<rect x="176.1" y="605.7" class="st0" width="17.2" height="73.7"/>
<rect x="158.8" y="605.7" class="st0" width="17.2" height="73.7"/>
<rect x="141.5" y="605.7" class="st0" width="17.2" height="73.7"/>
<rect x="124.3" y="605.7" class="st0" width="17.2" height="73.7"/>
<rect x="107" y="605.7" class="st0" width="17.2" height="73.7"/>
<rect x="89.8" y="605.7" class="st0" width="17.2" height="73.7"/>
<rect x="72.5" y="605.7" class="st0" width="17.2" height="73.7"/>
<rect x="55.2" y="605.7" class="st0" width="17.2" height="73.7"/>
<rect x="38" y="605.7" class="st0" width="17.2" height="73.7"/>
<rect x="245.1" y="223.6" class="st0" width="177.9" height="153.3"/>
<rect x="248" y="300.3" class="st0" width="17.2" height="73.7"/>
<rect x="265.2" y="300.3" class="st0" width="17.2" height="73.7"/>
<rect x="282.5" y="300.3" class="st0" width="17.2" height="73.7"/>
<rect x="299.7" y="300.3" class="st0" width="17.2" height="73.7"/>
<rect x="316.9" y="300.3" class="st0" width="17.2" height="73.7"/>
<rect x="334.1" y="300.3" class="st0" width="17.2" height="73.7"/>
<rect x="351.3" y="300.3" class="st0" width="17.2" height="73.7"/>
<rect x="368.5" y="300.3" class="st0" width="17.2" height="73.7"/>
<rect x="385.7" y="300.3" class="st0" width="17.2" height="73.7"/>
<rect x="402.9" y="300.3" class="st0" width="17.2" height="73.7"/>
<rect x="402.9" y="226.5" class="st0" width="17.2" height="73.7"/>
<rect x="385.7" y="226.5" class="st0" width="17.2" height="73.7"/>
<rect x="368.4" y="226.5" class="st0" width="17.2" height="73.7"/>
<rect x="351.1" y="226.5" class="st0" width="17.2" height="73.7"/>
<rect x="333.9" y="226.5" class="st0" width="17.2" height="73.7"/>
<rect x="316.6" y="226.5" class="st0" width="17.2" height="73.7"/>
<rect x="299.3" y="226.5" class="st0" width="17.2" height="73.7"/>
<rect x="282.1" y="226.5" class="st0" width="17.2" height="73.7"/>
<rect x="264.8" y="226.5" class="st0" width="17.2" height="73.7"/>
<rect x="247.6" y="226.5" class="st0" width="17.2" height="73.7"/>
<rect x="245.1" y="413.2" class="st0" width="177.9" height="153.3"/>
<rect x="248" y="489.8" class="st0" width="17.2" height="73.7"/>
<rect x="265.2" y="489.8" class="st0" width="17.2" height="73.7"/>
<rect x="282.5" y="489.8" class="st0" width="17.2" height="73.7"/>
<rect x="299.7" y="489.8" class="st0" width="17.2" height="73.7"/>
<rect x="316.9" y="489.8" class="st0" width="17.2" height="73.7"/>
<rect x="334.1" y="489.8" class="st0" width="17.2" height="73.7"/>
<rect x="351.3" y="489.8" class="st0" width="17.2" height="73.7"/>
<rect x="368.5" y="489.8" class="st0" width="17.2" height="73.7"/>
<rect x="385.7" y="489.8" class="st0" width="17.2" height="73.7"/>
<rect x="402.9" y="489.8" class="st0" width="17.2" height="73.7"/>
<rect x="402.9" y="416.1" class="st0" width="17.2" height="73.7"/>
<rect x="385.7" y="416.1" class="st0" width="17.2" height="73.7"/>
<rect x="368.4" y="416.1" class="st0" width="17.2" height="73.7"/>
<rect x="351.1" y="416.1" class="st0" width="17.2" height="73.7"/>
<rect x="333.9" y="416.1" class="st0" width="17.2" height="73.7"/>
<rect x="316.6" y="416.1" class="st0" width="17.2" height="73.7"/>
<rect x="299.3" y="416.1" class="st0" width="17.2" height="73.7"/>
<rect x="282.1" y="416.1" class="st0" width="17.2" height="73.7"/>
<rect x="264.8" y="416.1" class="st0" width="17.2" height="73.7"/>
<rect x="247.6" y="416.1" class="st0" width="17.2" height="73.7"/>
<rect x="245.1" y="602.7" class="st0" width="177.9" height="153.3"/>
<rect x="248" y="679.4" class="st0" width="17.2" height="73.7"/>
<rect x="265.2" y="679.4" class="st0" width="17.2" height="73.7"/>
<rect x="282.5" y="679.4" class="st0" width="17.2" height="73.7"/>
<rect x="299.7" y="679.4" class="st0" width="17.2" height="73.7"/>
<rect x="316.9" y="679.4" class="st0" width="17.2" height="73.7"/>
<rect x="334.1" y="679.4" class="st0" width="17.2" height="73.7"/>
<rect x="351.3" y="679.4" class="st0" width="17.2" height="73.7"/>
<rect x="368.5" y="679.4" class="st0" width="17.2" height="73.7"/>
<rect x="385.7" y="679.4" class="st0" width="17.2" height="73.7"/>
<rect x="402.9" y="679.4" class="st0" width="17.2" height="73.7"/>
<rect x="402.9" y="605.7" class="st0" width="17.2" height="73.7"/>
<rect x="385.7" y="605.7" class="st0" width="17.2" height="73.7"/>
<rect x="368.4" y="605.7" class="st0" width="17.2" height="73.7"/>
<rect x="351.1" y="605.7" class="st0" width="17.2" height="73.7"/>
<rect x="333.9" y="605.7" class="st0" width="17.2" height="73.7"/>
<rect x="316.6" y="605.7" class="st0" width="17.2" height="73.7"/>
<rect x="299.3" y="605.7" class="st0" width="17.2" height="73.7"/>
<rect x="282.1" y="605.7" class="st0" width="17.2" height="73.7"/>
<rect x="264.8" y="605.7" class="st0" width="17.2" height="73.7"/>
<rect x="247.6" y="605.7" class="st0" width="17.2" height="73.7"/>
<desc>Produce by Acme CAD Converter</desc>
<text transform="matrix(1 0 0 1 43.2998 65.8986)" class="st1 st2">A1</text>
<text transform="matrix(1 0 0 1 60.0998 65.8986)" class="st1 st2">A2</text>
<text transform="matrix(1 0 0 1 76.8998 65.8986)" class="st1 st2">A3</text>
<text transform="matrix(1 0 0 1 94.6998 65.8986)" class="st1 st2">A4</text>
<text transform="matrix(1 0 0 1 111.4998 65.8986)" class="st1 st2">A5</text>
<text transform="matrix(1 0 0 1 128.2998 65.8986)" class="st1 st2">A6</text>
<text transform="matrix(1 0 0 1 146.0998 65.8986)" class="st1 st2">A7</text>
<text transform="matrix(1 0 0 1 163.8998 65.8986)" class="st1 st2">A8</text>
<text transform="matrix(1 0 0 1 180.6998 65.8986)" class="st1 st2">A9</text>
<text transform="matrix(1 0 0 1 196.4998 65.8986)" class="st1 st2">A10</text>
<text transform="matrix(1 0 0 1 41.2998 147.55)" class="st1 st2">A11</text>
<text transform="matrix(1 0 0 1 58.0998 147.55)" class="st1 st2">A12</text>
<text transform="matrix(1 0 0 1 75.8998 147.55)" class="st1 st2">A13</text>
<text transform="matrix(1 0 0 1 92.6998 147.55)" class="st1 st2">A14</text>
<text transform="matrix(1 0 0 1 110.4998 147.55)" class="st1 st2">A15</text>
<text transform="matrix(1 0 0 1 127.2998 147.55)" class="st1 st2">A16</text>
<text transform="matrix(1 0 0 1 144.0998 147.55)" class="st1 st2">A17</text>
<text transform="matrix(1 0 0 1 161.8998 147.55)" class="st1 st2">A18</text>
<text transform="matrix(1 0 0 1 178.6998 147.55)" class="st1 st2">A19</text>
<text transform="matrix(1 0 0 1 195.4998 147.55)" class="st1 st2">A20</text>
</svg>
