<?xml version="1.0" encoding="utf-8"?>
<!-- Generator: Adobe Illustrator 24.0.1, SVG Export Plug-In . SVG Version: 6.00 Build 0)  -->
<svg version="1.1" id="Camada_1" xmlns="http://www.w3.org/2000/svg" xmlns:xlink="http://www.w3.org/1999/xlink" x="0px" y="0px"
	 viewBox="0 0 465.1 783.1" style="enable-background:new 0 0 465.1 783.1;" xml:space="preserve">
<style type="text/css">
	.st0{fill:#FFFFFF;stroke:#000000;stroke-miterlimit:10;}
	.st1{font-family:'ArialMT';}
	.st2{font-size:6.9867px;}
</style>
<rect x="245.5" y="34" class="st0" width="177.9" height="153.3" data-value="B"/>
<rect x="248.5" y="110.7" class="st0" width="17.2" height="73.7" data-value="B11"/>
<rect x="265.7" y="110.7" class="st0" width="17.2" height="73.7" data-value="B12"/>
<rect x="282.9" y="110.7" class="st0" width="17.2" height="73.7" data-value="B13"/>
<rect x="300.1" y="110.7" class="st0" width="17.2" height="73.7" data-value="B14"/>
<rect x="317.3" y="110.7" class="st0" width="17.2" height="73.7" data-value="B15"/>
<rect x="334.5" y="110.7" class="st0" width="17.2" height="73.7" data-value="B16"/>
<rect x="351.7" y="110.7" class="st0" width="17.2" height="73.7" data-value="B17"/>
<rect x="368.9" y="110.7" class="st0" width="17.2" height="73.7" data-value="B18"/>
<rect x="386.1" y="110.7" class="st0" width="17.2" height="73.7" data-value="B19"/>
<rect x="403.4" y="110.7" class="st0" width="17.2" height="73.7" data-value="B20"/>
<rect x="403.4" y="37" class="st0" width="17.2" height="73.7" data-value="B10"/>
<rect x="386.1" y="37" class="st0" width="17.2" height="73.7" data-value="B9"/>
<rect x="368.8" y="37" class="st0" width="17.2" height="73.7" data-value="B8"/>
<rect x="351.6" y="37" class="st0" width="17.2" height="73.7" data-value="B7"/>
<rect x="334.3" y="37" class="st0" width="17.2" height="73.7" data-value="B6"/>
<rect x="317" y="37" class="st0" width="17.2" height="73.7" data-value="B5"/>
<rect x="299.8" y="37" class="st0" width="17.2" height="73.7" data-value="B4"/>
<rect x="282.5" y="37" class="st0" width="17.2" height="73.7" data-value="B3"/>
<rect x="265.3" y="37" class="st0" width="17.2" height="73.7" data-value="B2"/>
<rect x="248" y="37" class="st0" width="17.2" height="73.7" data-value="B1"/>
<desc>Produce by Acme CAD Converter</desc>
<rect x="35.5" y="34" class="st0" width="177.9" height="153.3" data-value="A" />
<rect x="38.4" y="110.7" class="st0" width="17.2" height="73.7" data-value="A11"/>
<rect x="55.7" y="110.7" class="st0" width="17.2" height="73.7" data-value="A12" />
<rect x="72.9" y="110.7" class="st0" width="17.2" height="73.7" data-value="A13" />
<rect x="90.1" y="110.7" class="st0" width="17.2" height="73.7" data-value="A14" />
<rect x="107.3" y="110.7" class="st0" width="17.2" height="73.7" data-value="A15" />
<rect x="124.5" y="110.7" class="st0" width="17.2" height="73.7" data-value="A16" />
<rect x="141.7" y="110.7" class="st0" width="17.2" height="73.7" data-value="A17" />
<rect x="158.9" y="110.7" class="st0" width="17.2" height="73.7" data-value="A18" />
<rect x="176.1" y="110.7" class="st0" width="17.2" height="73.7" data-value="A19" />
<rect x="193.3" y="110.7" class="st0" width="17.2" height="73.7" data-value="A20" />
<rect x="193.3" y="37" class="st0" width="17.2" height="73.7" data-value="A10" />
<rect x="176.1" y="37" class="st0" width="17.2" height="73.7" data-value="A9" />
<rect x="158.8" y="37" class="st0" width="17.2" height="73.7" data-value="A8" />
<rect x="141.5" y="37" class="st0" width="17.2" height="73.7" data-value="A7" />
<rect x="124.3" y="37" class="st0" width="17.2" height="73.7" data-value="A6" />
<rect x="107" y="37" class="st0" width="17.2" height="73.7" data-value="A5" />
<rect x="89.8" y="37" class="st0" width="17.2" height="73.7" data-value="A4" />
<rect x="72.5" y="37" class="st0" width="17.2" height="73.7" data-value="A3" />
<rect x="55.2" y="37" class="st0" width="17.2" height="73.7" data-value="A2" />
<rect x="38" y="37" class="st0" width="17.2" height="73.7" data-value="A1" />

<rect x="35.5" y="223.6" class="st0" width="177.9" height="153.3" data-value="C"/>
<rect x="38.4" y="300.3" class="st0" width="17.2" height="73.7" data-value="C11" />
<rect x="55.7" y="300.3" class="st0" width="17.2" height="73.7" data-value="C12" />
<rect x="72.9" y="300.3" class="st0" width="17.2" height="73.7" data-value="C13" />
<rect x="90.1" y="300.3" class="st0" width="17.2" height="73.7" data-value="C14" />
<rect x="107.3" y="300.3" class="st0" width="17.2" height="73.7" data-value="C15" />
<rect x="124.5" y="300.3" class="st0" width="17.2" height="73.7" data-value="C16" />
<rect x="141.7" y="300.3" class="st0" width="17.2" height="73.7" data-value="C17" />
<rect x="158.9" y="300.3" class="st0" width="17.2" height="73.7" data-value="C18" />
<rect x="176.1" y="300.3" class="st0" width="17.2" height="73.7" data-value="C19" />
<rect x="193.3" y="300.3" class="st0" width="17.2" height="73.7" data-value="C20" />
<rect x="193.3" y="226.5" class="st0" width="17.2" height="73.7" data-value="C10" />
<rect x="176.1" y="226.5" class="st0" width="17.2" height="73.7" data-value="C9" />
<rect x="158.8" y="226.5" class="st0" width="17.2" height="73.7" data-value="C8" />
<rect x="141.5" y="226.5" class="st0" width="17.2" height="73.7" data-value="C7" />
<rect x="124.3" y="226.5" class="st0" width="17.2" height="73.7" data-value="C6" />
<rect x="107" y="226.5" class="st0" width="17.2" height="73.7" data-value="C5" />
<rect x="89.8" y="226.5" class="st0" width="17.2" height="73.7" data-value="C4" />
<rect x="72.5" y="226.5" class="st0" width="17.2" height="73.7" data-value="C3" />
<rect x="55.2" y="226.5" class="st0" width="17.2" height="73.7" data-value="C2" />
<rect x="38" y="226.5" class="st0" width="17.2" height="73.7" data-value="C1" />

<rect x="245.1" y="223.6" class="st0" width="177.9" height="153.3" data-value="D"/>
<rect x="248" y="300.3" class="st0" width="17.2" height="73.7" data-value="D11" />
<rect x="265.2" y="300.3" class="st0" width="17.2" height="73.7" data-value="D12" />
<rect x="282.5" y="300.3" class="st0" width="17.2" height="73.7" data-value="D13" />
<rect x="299.7" y="300.3" class="st0" width="17.2" height="73.7" data-value="D14" />
<rect x="316.9" y="300.3" class="st0" width="17.2" height="73.7" data-value="D15" />
<rect x="334.1" y="300.3" class="st0" width="17.2" height="73.7" data-value="D16" />
<rect x="351.3" y="300.3" class="st0" width="17.2" height="73.7" data-value="D17" />
<rect x="368.5" y="300.3" class="st0" width="17.2" height="73.7" data-value="D18" />
<rect x="385.7" y="300.3" class="st0" width="17.2" height="73.7" data-value="D19" />
<rect x="402.9" y="300.3" class="st0" width="17.2" height="73.7" data-value="D20" />
<rect x="402.9" y="226.5" class="st0" width="17.2" height="73.7" data-value="D10" />
<rect x="385.7" y="226.5" class="st0" width="17.2" height="73.7" data-value="D9" />
<rect x="368.4" y="226.5" class="st0" width="17.2" height="73.7" data-value="D8" />
<rect x="351.1" y="226.5" class="st0" width="17.2" height="73.7" data-value="D7" />
<rect x="333.9" y="226.5" class="st0" width="17.2" height="73.7" data-value="D6" />
<rect x="316.6" y="226.5" class="st0" width="17.2" height="73.7" data-value="D5" />
<rect x="299.3" y="226.5" class="st0" width="17.2" height="73.7" data-value="D4" />
<rect x="282.1" y="226.5" class="st0" width="17.2" height="73.7" data-value="D3" />
<rect x="264.8" y="226.5" class="st0" width="17.2" height="73.7" data-value="D2" />
<rect x="247.6" y="226.5" class="st0" width="17.2" height="73.7" data-value="D1" />

<text transform="matrix(1 0 0 1 43.2998 65.8986)" class="st1 st2">A1</text>
<text transform="matrix(1 0 0 1 60.0998 65.8986)" class="st1 st2">A2</text>
<text transform="matrix(1 0 0 1 76.8998 65.8986)" class="st1 st2">A3</text>
<text transform="matrix(1 0 0 1 94.6998 65.8986)" class="st1 st2">A4</text>
<text transform="matrix(1 0 0 1 111.4998 65.8986)" class="st1 st2">A5</text>
<text transform="matrix(1 0 0 1 128.2998 65.8986)" class="st1 st2">A6</text>
<text transform="matrix(1 0 0 1 146.0998 65.8986)" class="st1 st2">A7</text>
<text transform="matrix(1 0 0 1 163.8998 65.8986)" class="st1 st2">A8</text>
<text transform="matrix(1 0 0 1 180.6998 65.8986)" class="st1 st2">A9</text>
<text transform="matrix(1 0 0 1 196.4998 65.8986)" class="st1 st2">A10</text>
<text transform="matrix(1 0 0 1 41.2998 147.55)" class="st1 st2">A11</text>
<text transform="matrix(1 0 0 1 58.0998 147.55)" class="st1 st2">A12</text>
<text transform="matrix(1 0 0 1 75.8998 147.55)" class="st1 st2">A13</text>
<text transform="matrix(1 0 0 1 92.6998 147.55)" class="st1 st2">A14</text>
<text transform="matrix(1 0 0 1 110.4998 147.55)" class="st1 st2">A15</text>
<text transform="matrix(1 0 0 1 127.2998 147.55)" class="st1 st2">A16</text>
<text transform="matrix(1 0 0 1 144.0998 147.55)" class="st1 st2">A17</text>
<text transform="matrix(1 0 0 1 161.8998 147.55)" class="st1 st2">A18</text>
<text transform="matrix(1 0 0 1 178.6998 147.55)" class="st1 st2">A19</text>
<text transform="matrix(1 0 0 1 195.4998 147.55)" class="st1 st2">A20</text>
<text transform="matrix(1 0 0 1 253.1798 65.8986)" class="st1 st2">B1</text>
<text transform="matrix(1 0 0 1 269.9798 65.8986)" class="st1 st2">B2</text>
<text transform="matrix(1 0 0 1 286.7798 65.8986)" class="st1 st2">B3</text>
<text transform="matrix(1 0 0 1 304.5798 65.8986)" class="st1 st2">B4</text>
<text transform="matrix(1 0 0 1 321.3798 65.8986)" class="st1 st2">B5</text>
<text transform="matrix(1 0 0 1 338.1798 65.8986)" class="st1 st2">B6</text>
<text transform="matrix(1 0 0 1 355.9798 65.8986)" class="st1 st2">B7</text>
<text transform="matrix(1 0 0 1 373.7798 65.8986)" class="st1 st2">B8</text>
<text transform="matrix(1 0 0 1 390.5798 65.8986)" class="st1 st2">B9</text>
<text transform="matrix(1 0 0 1 406.3798 65.8986)" class="st1 st2">B10</text>
<text transform="matrix(1 0 0 1 251.1798 147.55)" class="st1 st2">B11</text>
<text transform="matrix(1 0 0 1 267.9798 147.55)" class="st1 st2">B12</text>
<text transform="matrix(1 0 0 1 285.7798 147.55)" class="st1 st2">B13</text>
<text transform="matrix(1 0 0 1 302.5798 147.55)" class="st1 st2">B14</text>
<text transform="matrix(1 0 0 1 320.3798 147.55)" class="st1 st2">B15</text>
<text transform="matrix(1 0 0 1 337.1798 147.55)" class="st1 st2">B16</text>
<text transform="matrix(1 0 0 1 353.9798 147.55)" class="st1 st2">B17</text>
<text transform="matrix(1 0 0 1 371.7798 147.55)" class="st1 st2">B18</text>
<text transform="matrix(1 0 0 1 388.5798 147.55)" class="st1 st2">B19</text>
<text transform="matrix(1 0 0 1 405.3798 147.55)" class="st1 st2">B20</text>
<text transform="matrix(1 0 0 1 253.1798 263.3501)" class="st1 st2">D1</text>
<text transform="matrix(1 0 0 1 269.9798 263.3501)" class="st1 st2">D2</text>
<text transform="matrix(1 0 0 1 286.7798 263.3501)" class="st1 st2">D3</text>
<text transform="matrix(1 0 0 1 304.5798 263.3501)" class="st1 st2">D4</text>
<text transform="matrix(1 0 0 1 321.3798 263.3501)" class="st1 st2">D5</text>
<text transform="matrix(1 0 0 1 338.1798 263.3501)" class="st1 st2">D6</text>
<text transform="matrix(1 0 0 1 355.9798 263.3501)" class="st1 st2">D7</text>
<text transform="matrix(1 0 0 1 373.7798 263.3501)" class="st1 st2">D8</text>
<text transform="matrix(1 0 0 1 390.5798 263.3501)" class="st1 st2">D9</text>
<text transform="matrix(1 0 0 1 406.3798 263.3501)" class="st1 st2">D10</text>
<text transform="matrix(1 0 0 1 251.1798 345.0014)" class="st1 st2">D11</text>
<text transform="matrix(1 0 0 1 267.9798 345.0014)" class="st1 st2">D12</text>
<text transform="matrix(1 0 0 1 285.7798 345.0014)" class="st1 st2">D13</text>
<text transform="matrix(1 0 0 1 302.5798 345.0014)" class="st1 st2">D14</text>
<text transform="matrix(1 0 0 1 320.3798 345.0014)" class="st1 st2">D15</text>
<text transform="matrix(1 0 0 1 337.1798 345.0014)" class="st1 st2">D16</text>
<text transform="matrix(1 0 0 1 353.9798 345.0014)" class="st1 st2">D17</text>
<text transform="matrix(1 0 0 1 371.7798 345.0014)" class="st1 st2">D18</text>
<text transform="matrix(1 0 0 1 388.5798 345.0014)" class="st1 st2">D19</text>
<text transform="matrix(1 0 0 1 405.3798 345.0014)" class="st1 st2">D20</text>
<text transform="matrix(1 0 0 1 43.2999 263.3498)" class="st1 st2">C1</text>
<text transform="matrix(1 0 0 1 60.0999 263.3498)" class="st1 st2">C2</text>
<text transform="matrix(1 0 0 1 76.8999 263.3498)" class="st1 st2">C3</text>
<text transform="matrix(1 0 0 1 94.6999 263.3498)" class="st1 st2">C4</text>
<text transform="matrix(1 0 0 1 111.4999 263.3498)" class="st1 st2">C5</text>
<text transform="matrix(1 0 0 1 128.2999 263.3498)" class="st1 st2">C6</text>
<text transform="matrix(1 0 0 1 146.0999 263.3498)" class="st1 st2">C7</text>
<text transform="matrix(1 0 0 1 163.8999 263.3498)" class="st1 st2">C8</text>
<text transform="matrix(1 0 0 1 180.6999 263.3498)" class="st1 st2">C9</text>
<text transform="matrix(1 0 0 1 196.4999 263.3498)" class="st1 st2">C10</text>
<text transform="matrix(1 0 0 1 41.2999 345.0011)" class="st1 st2">C11</text>
<text transform="matrix(1 0 0 1 58.0999 345.0011)" class="st1 st2">C12</text>
<text transform="matrix(1 0 0 1 75.8999 345.0011)" class="st1 st2">C13</text>
<text transform="matrix(1 0 0 1 92.6999 345.0011)" class="st1 st2">C14</text>
<text transform="matrix(1 0 0 1 110.4999 345.0011)" class="st1 st2">C15</text>
<text transform="matrix(1 0 0 1 127.2999 345.0011)" class="st1 st2">C16</text>
<text transform="matrix(1 0 0 1 144.0999 345.0011)" class="st1 st2">C17</text>
<text transform="matrix(1 0 0 1 161.8999 345.0011)" class="st1 st2">C18</text>
<text transform="matrix(1 0 0 1 178.6999 345.0011)" class="st1 st2">C19</text>
<text transform="matrix(1 0 0 1 195.4999 345.0011)" class="st1 st2">C20</text>
</svg>
