<?xml version="1.0" encoding="UTF-8"?>
<svg xmlns="http://www.w3.org/2000/svg" width="800.000" height="600.000" viewBox="0.0 0.0 800.000 600.000" version="1.1">
  <desc>Produce by Acme CAD Converter</desc>
<path d="M223.68 281.97L265.49 281.97"
fill="none" stroke="black" stroke-width="0.5"/>
<path d="M265.49 281.97L265.49 233.19Z"
fill="none" stroke="black" stroke-width="0.5"/>
<path d="M265.49 233.19L223.68 233.19"
fill="none" stroke="black" stroke-width="0.5"/>
<path d="M223.68 233.19L223.68 281.97Z"
fill="none" stroke="black" stroke-width="0.5"/>
<path d="M222.85 282.81L266.33 282.81"
fill="none" stroke="black" stroke-width="0.5"/>
<path d="M266.33 282.81L266.33 232.36Z"
fill="none" stroke="black" stroke-width="0.5"/>
<path d="M266.33 232.36L222.85 232.36"
fill="none" stroke="black" stroke-width="0.5"/>
<path d="M222.85 232.36L222.85 282.81Z"
fill="none" stroke="black" stroke-width="0.5"/>
<path d="M276 281.97L317.81 281.97"
fill="none" stroke="black" stroke-width="0.5"/>
<path d="M317.81 281.97L317.81 233.19Z"
fill="none" stroke="black" stroke-width="0.5"/>
<path d="M317.81 233.19L276 233.19"
fill="none" stroke="black" stroke-width="0.5"/>
<path d="M276 233.19L276 281.97Z"
fill="none" stroke="black" stroke-width="0.5"/>
<path d="M275.16 282.81L318.64 282.81"
fill="none" stroke="black" stroke-width="0.5"/>
<path d="M318.64 282.81L318.64 232.36Z"
fill="none" stroke="black" stroke-width="0.5"/>
<path d="M318.64 232.36L275.16 232.36"
fill="none" stroke="black" stroke-width="0.5"/>
<path d="M275.16 232.36L275.16 282.81Z"
fill="none" stroke="black" stroke-width="0.5"/>
<path d="M244.59 233.19L244.59 281.97Z"
fill="none" stroke="black" stroke-width="0.5"/>
<path d="M223.68 233.19L244.59 233.19"
fill="none" stroke="black" stroke-width="0.5"/>
<path d="M244.59 233.19L265.49 233.19"
fill="none" stroke="black" stroke-width="0.5"/>
<path d="M296.9 233.19L296.9 281.97Z"
fill="none" stroke="black" stroke-width="0.5"/>
<path d="M276 238.07L296.9 238.07"
fill="none" stroke="black" stroke-width="0.5"/>
<path d="M276 242.95L296.9 242.95"
fill="none" stroke="black" stroke-width="0.5"/>
<path d="M276 247.83L296.9 247.83"
fill="none" stroke="black" stroke-width="0.5"/>
<path d="M276 252.71L296.9 252.71"
fill="none" stroke="black" stroke-width="0.5"/>
<path d="M276 257.58L296.9 257.58"
fill="none" stroke="black" stroke-width="0.5"/>
<path d="M276 262.46L296.9 262.46"
fill="none" stroke="black" stroke-width="0.5"/>
<path d="M276 267.34L296.9 267.34"
fill="none" stroke="black" stroke-width="0.5"/>
<path d="M276 272.22L296.9 272.22"
fill="none" stroke="black" stroke-width="0.5"/>
<path d="M276 277.1L296.9 277.1"
fill="none" stroke="black" stroke-width="0.5"/>
<path d="M296.9 238.07L317.81 238.07"
fill="none" stroke="black" stroke-width="0.5"/>
<path d="M296.9 242.95L317.81 242.95"
fill="none" stroke="black" stroke-width="0.5"/>
<path d="M296.9 247.83L317.81 247.83"
fill="none" stroke="black" stroke-width="0.5"/>
<path d="M296.9 252.71L317.81 252.71"
fill="none" stroke="black" stroke-width="0.5"/>
<path d="M296.9 257.58L317.81 257.58"
fill="none" stroke="black" stroke-width="0.5"/>
<path d="M296.9 262.46L317.81 262.46"
fill="none" stroke="black" stroke-width="0.5"/>
<path d="M296.9 267.34L317.81 267.34"
fill="none" stroke="black" stroke-width="0.5"/>
<path d="M296.9 272.22L317.81 272.22"
fill="none" stroke="black" stroke-width="0.5"/>
<path d="M296.9 277.1L317.81 277.1"
fill="none" stroke="black" stroke-width="0.5"/>
<path d="M223.68 238.07L244.59 238.07"
fill="none" stroke="black" stroke-width="0.5"/>
<path d="M223.68 242.95L244.59 242.95"
fill="none" stroke="black" stroke-width="0.5"/>
<path d="M223.68 247.83L244.59 247.83"
fill="none" stroke="black" stroke-width="0.5"/>
<path d="M223.68 252.71L244.59 252.71"
fill="none" stroke="black" stroke-width="0.5"/>
<path d="M223.68 257.58L244.59 257.58"
fill="none" stroke="black" stroke-width="0.5"/>
<path d="M223.68 262.46L244.59 262.46"
fill="none" stroke="black" stroke-width="0.5"/>
<path d="M223.68 267.34L244.59 267.34"
fill="none" stroke="black" stroke-width="0.5"/>
<path d="M223.68 272.22L244.59 272.22"
fill="none" stroke="black" stroke-width="0.5"/>
<path d="M223.68 277.1L244.59 277.1"
fill="none" stroke="black" stroke-width="0.5"/>
<path d="M244.59 238.07L265.49 238.07"
fill="none" stroke="black" stroke-width="0.5"/>
<path d="M244.59 242.95L265.49 242.95"
fill="none" stroke="black" stroke-width="0.5"/>
<path d="M244.59 247.83L265.49 247.83"
fill="none" stroke="black" stroke-width="0.5"/>
<path d="M244.59 252.71L265.49 252.71"
fill="none" stroke="black" stroke-width="0.5"/>
<path d="M244.59 257.58L265.49 257.58"
fill="none" stroke="black" stroke-width="0.5"/>
<path d="M244.59 262.46L265.49 262.46"
fill="none" stroke="black" stroke-width="0.5"/>
<path d="M244.59 267.34L265.49 267.34"
fill="none" stroke="black" stroke-width="0.5"/>
<path d="M244.59 272.22L265.49 272.22"
fill="none" stroke="black" stroke-width="0.5"/>
<path d="M244.59 277.1L265.49 277.1"
fill="none" stroke="black" stroke-width="0.5"/>
<path d="M223.68 222.72L265.49 222.72"
fill="none" stroke="black" stroke-width="0.5"/>
<path d="M265.49 222.72L265.49 173.94Z"
fill="none" stroke="black" stroke-width="0.5"/>
<path d="M265.49 173.94L223.68 173.94"
fill="none" stroke="black" stroke-width="0.5"/>
<path d="M223.68 173.94L223.68 222.72Z"
fill="none" stroke="black" stroke-width="0.5"/>
<path d="M222.85 223.56L266.33 223.56"
fill="none" stroke="black" stroke-width="0.5"/>
<path d="M266.33 223.56L266.33 173.11Z"
fill="none" stroke="black" stroke-width="0.5"/>
<path d="M266.33 173.11L222.85 173.11"
fill="none" stroke="black" stroke-width="0.5"/>
<path d="M222.85 173.11L222.85 223.56Z"
fill="none" stroke="black" stroke-width="0.5"/>
<path d="M276 222.72L317.81 222.72"
fill="none" stroke="black" stroke-width="0.5"/>
<path d="M317.81 222.72L317.81 173.94Z"
fill="none" stroke="black" stroke-width="0.5"/>
<path d="M317.81 173.94L276 173.94"
fill="none" stroke="black" stroke-width="0.5"/>
<path d="M276 173.94L276 222.72Z"
fill="none" stroke="black" stroke-width="0.5"/>
<path d="M275.16 223.56L318.64 223.56"
fill="none" stroke="black" stroke-width="0.5"/>
<path d="M318.64 223.56L318.64 173.11Z"
fill="none" stroke="black" stroke-width="0.5"/>
<path d="M318.64 173.11L275.16 173.11"
fill="none" stroke="black" stroke-width="0.5"/>
<path d="M275.16 173.11L275.16 223.56Z"
fill="none" stroke="black" stroke-width="0.5"/>
<path d="M244.59 173.94L244.59 222.72Z"
fill="none" stroke="black" stroke-width="0.5"/>
<path d="M223.68 173.94L244.59 173.94"
fill="none" stroke="black" stroke-width="0.5"/>
<path d="M244.59 173.94L265.49 173.94"
fill="none" stroke="black" stroke-width="0.5"/>
<path d="M296.9 173.94L296.9 222.72Z"
fill="none" stroke="black" stroke-width="0.5"/>
<path d="M276 178.82L296.9 178.82"
fill="none" stroke="black" stroke-width="0.5"/>
<path d="M276 183.7L296.9 183.7"
fill="none" stroke="black" stroke-width="0.5"/>
<path d="M276 188.58L296.9 188.58"
fill="none" stroke="black" stroke-width="0.5"/>
<path d="M276 193.45L296.9 193.45"
fill="none" stroke="black" stroke-width="0.5"/>
<path d="M276 198.33L296.9 198.33"
fill="none" stroke="black" stroke-width="0.5"/>
<path d="M276 203.21L296.9 203.21"
fill="none" stroke="black" stroke-width="0.5"/>
<path d="M276 208.09L296.9 208.09"
fill="none" stroke="black" stroke-width="0.5"/>
<path d="M276 212.97L296.9 212.97"
fill="none" stroke="black" stroke-width="0.5"/>
<path d="M276 217.84L296.9 217.84"
fill="none" stroke="black" stroke-width="0.5"/>
<path d="M296.9 178.82L317.81 178.82"
fill="none" stroke="black" stroke-width="0.5"/>
<path d="M296.9 183.7L317.81 183.7"
fill="none" stroke="black" stroke-width="0.5"/>
<path d="M296.9 188.58L317.81 188.58"
fill="none" stroke="black" stroke-width="0.5"/>
<path d="M296.9 193.45L317.81 193.45"
fill="none" stroke="black" stroke-width="0.5"/>
<path d="M296.9 198.33L317.81 198.33"
fill="none" stroke="black" stroke-width="0.5"/>
<path d="M296.9 203.21L317.81 203.21"
fill="none" stroke="black" stroke-width="0.5"/>
<path d="M296.9 208.09L317.81 208.09"
fill="none" stroke="black" stroke-width="0.5"/>
<path d="M296.9 212.97L317.81 212.97"
fill="none" stroke="black" stroke-width="0.5"/>
<path d="M296.9 217.84L317.81 217.84"
fill="none" stroke="black" stroke-width="0.5"/>
<path d="M223.68 178.82L244.59 178.82"
fill="none" stroke="black" stroke-width="0.5"/>
<path d="M223.68 183.7L244.59 183.7"
fill="none" stroke="black" stroke-width="0.5"/>
<path d="M223.68 188.58L244.59 188.58"
fill="none" stroke="black" stroke-width="0.5"/>
<path d="M223.68 193.45L244.59 193.45"
fill="none" stroke="black" stroke-width="0.5"/>
<path d="M223.68 198.33L244.59 198.33"
fill="none" stroke="black" stroke-width="0.5"/>
<path d="M223.68 203.21L244.59 203.21"
fill="none" stroke="black" stroke-width="0.5"/>
<path d="M223.68 208.09L244.59 208.09"
fill="none" stroke="black" stroke-width="0.5"/>
<path d="M223.68 212.97L244.59 212.97"
fill="none" stroke="black" stroke-width="0.5"/>
<path d="M223.68 217.84L244.59 217.84"
fill="none" stroke="black" stroke-width="0.5"/>
<path d="M244.59 178.82L265.49 178.82"
fill="none" stroke="black" stroke-width="0.5"/>
<path d="M244.59 183.7L265.49 183.7"
fill="none" stroke="black" stroke-width="0.5"/>
<path d="M244.59 188.58L265.49 188.58"
fill="none" stroke="black" stroke-width="0.5"/>
<path d="M244.59 193.45L265.49 193.45"
fill="none" stroke="black" stroke-width="0.5"/>
<path d="M244.59 198.33L265.49 198.33"
fill="none" stroke="black" stroke-width="0.5"/>
<path d="M244.59 203.21L265.49 203.21"
fill="none" stroke="black" stroke-width="0.5"/>
<path d="M244.59 208.09L265.49 208.09"
fill="none" stroke="black" stroke-width="0.5"/>
<path d="M244.59 212.97L265.49 212.97"
fill="none" stroke="black" stroke-width="0.5"/>
<path d="M244.59 217.84L265.49 217.84"
fill="none" stroke="black" stroke-width="0.5"/>
<path d="M223.68 339.62L265.49 339.62"
fill="none" stroke="black" stroke-width="0.5"/>
<path d="M265.49 339.62L265.49 290.84Z"
fill="none" stroke="black" stroke-width="0.5"/>
<path d="M265.49 290.84L223.68 290.84"
fill="none" stroke="black" stroke-width="0.5"/>
<path d="M223.68 290.84L223.68 339.62Z"
fill="none" stroke="black" stroke-width="0.5"/>
<path d="M222.85 340.46L266.33 340.46"
fill="none" stroke="black" stroke-width="0.5"/>
<path d="M266.33 340.46L266.33 290.01Z"
fill="none" stroke="black" stroke-width="0.5"/>
<path d="M266.33 290.01L222.85 290.01"
fill="none" stroke="black" stroke-width="0.5"/>
<path d="M222.85 290.01L222.85 340.46Z"
fill="none" stroke="black" stroke-width="0.5"/>
<path d="M276 339.62L317.81 339.62"
fill="none" stroke="black" stroke-width="0.5"/>
<path d="M317.81 339.62L317.81 290.84Z"
fill="none" stroke="black" stroke-width="0.5"/>
<path d="M317.81 290.84L276 290.84"
fill="none" stroke="black" stroke-width="0.5"/>
<path d="M276 290.84L276 339.62Z"
fill="none" stroke="black" stroke-width="0.5"/>
<path d="M275.16 340.46L318.64 340.46"
fill="none" stroke="black" stroke-width="0.5"/>
<path d="M318.64 340.46L318.64 290.01Z"
fill="none" stroke="black" stroke-width="0.5"/>
<path d="M318.64 290.01L275.16 290.01"
fill="none" stroke="black" stroke-width="0.5"/>
<path d="M275.16 290.01L275.16 340.46Z"
fill="none" stroke="black" stroke-width="0.5"/>
<path d="M244.59 290.84L244.59 339.62Z"
fill="none" stroke="black" stroke-width="0.5"/>
<path d="M223.68 290.84L244.59 290.84"
fill="none" stroke="black" stroke-width="0.5"/>
<path d="M244.59 290.84L265.49 290.84"
fill="none" stroke="black" stroke-width="0.5"/>
<path d="M296.9 290.84L296.9 339.62Z"
fill="none" stroke="black" stroke-width="0.5"/>
<path d="M276 295.72L296.9 295.72"
fill="none" stroke="black" stroke-width="0.5"/>
<path d="M276 300.6L296.9 300.6"
fill="none" stroke="black" stroke-width="0.5"/>
<path d="M276 305.48L296.9 305.48"
fill="none" stroke="black" stroke-width="0.5"/>
<path d="M276 310.35L296.9 310.35"
fill="none" stroke="black" stroke-width="0.5"/>
<path d="M276 315.23L296.9 315.23"
fill="none" stroke="black" stroke-width="0.5"/>
<path d="M276 320.11L296.9 320.11"
fill="none" stroke="black" stroke-width="0.5"/>
<path d="M276 324.99L296.9 324.99"
fill="none" stroke="black" stroke-width="0.5"/>
<path d="M276 329.87L296.9 329.87"
fill="none" stroke="black" stroke-width="0.5"/>
<path d="M276 334.74L296.9 334.74"
fill="none" stroke="black" stroke-width="0.5"/>
<path d="M296.9 295.72L317.81 295.72"
fill="none" stroke="black" stroke-width="0.5"/>
<path d="M296.9 300.6L317.81 300.6"
fill="none" stroke="black" stroke-width="0.5"/>
<path d="M296.9 305.48L317.81 305.48"
fill="none" stroke="black" stroke-width="0.5"/>
<path d="M296.9 310.35L317.81 310.35"
fill="none" stroke="black" stroke-width="0.5"/>
<path d="M296.9 315.23L317.81 315.23"
fill="none" stroke="black" stroke-width="0.5"/>
<path d="M296.9 320.11L317.81 320.11"
fill="none" stroke="black" stroke-width="0.5"/>
<path d="M296.9 324.99L317.81 324.99"
fill="none" stroke="black" stroke-width="0.5"/>
<path d="M296.9 329.87L317.81 329.87"
fill="none" stroke="black" stroke-width="0.5"/>
<path d="M296.9 334.74L317.81 334.74"
fill="none" stroke="black" stroke-width="0.5"/>
<path d="M223.68 295.72L244.59 295.72"
fill="none" stroke="black" stroke-width="0.5"/>
<path d="M223.68 300.6L244.59 300.6"
fill="none" stroke="black" stroke-width="0.5"/>
<path d="M223.68 305.48L244.59 305.48"
fill="none" stroke="black" stroke-width="0.5"/>
<path d="M223.68 310.35L244.59 310.35"
fill="none" stroke="black" stroke-width="0.5"/>
<path d="M223.68 315.23L244.59 315.23"
fill="none" stroke="black" stroke-width="0.5"/>
<path d="M223.68 320.11L244.59 320.11"
fill="none" stroke="black" stroke-width="0.5"/>
<path d="M223.68 324.99L244.59 324.99"
fill="none" stroke="black" stroke-width="0.5"/>
<path d="M223.68 329.87L244.59 329.87"
fill="none" stroke="black" stroke-width="0.5"/>
<path d="M223.68 334.74L244.59 334.74"
fill="none" stroke="black" stroke-width="0.5"/>
<path d="M244.59 295.72L265.49 295.72"
fill="none" stroke="black" stroke-width="0.5"/>
<path d="M244.59 300.6L265.49 300.6"
fill="none" stroke="black" stroke-width="0.5"/>
<path d="M244.59 305.48L265.49 305.48"
fill="none" stroke="black" stroke-width="0.5"/>
<path d="M244.59 310.35L265.49 310.35"
fill="none" stroke="black" stroke-width="0.5"/>
<path d="M244.59 315.23L265.49 315.23"
fill="none" stroke="black" stroke-width="0.5"/>
<path d="M244.59 320.11L265.49 320.11"
fill="none" stroke="black" stroke-width="0.5"/>
<path d="M244.59 324.99L265.49 324.99"
fill="none" stroke="black" stroke-width="0.5"/>
<path d="M244.59 329.87L265.49 329.87"
fill="none" stroke="black" stroke-width="0.5"/>
<path d="M244.59 334.74L265.49 334.74"
fill="none" stroke="black" stroke-width="0.5"/>
</svg>
